# 3ds Max Wavefront OBJ Exporter v0.97b - (c)2007 guruware
# File Created: 13.01.2021 23:54:09

mtllib cuartoLavado.mtl

#
# object Box001
#

v  151.4041 0.0012 -83.5985
v  151.4041 0.0012 -53.9737
v  100.4494 0.0012 -53.9737
v  100.4494 0.0012 -83.5985
v  49.4948 0.0012 -53.9737
v  49.4948 0.0012 -83.5985
v  -1.4599 0.0012 -53.9737
v  -1.4599 0.0012 -83.5986
v  -52.4146 0.0012 -53.9737
v  -52.4146 0.0012 -83.5986
v  -103.3693 0.0012 -53.9737
v  -103.3693 0.0012 -83.5986
v  151.4041 0.0012 -24.3489
v  100.4494 0.0012 -24.3489
v  49.4948 0.0012 -24.3489
v  -1.4599 0.0012 -24.3489
v  -52.4146 0.0012 -24.3489
v  -103.3693 0.0012 -24.3489
v  151.4041 0.0012 5.2759
v  100.4494 0.0012 5.2759
v  49.4948 0.0012 5.2759
v  -1.4599 0.0012 5.2759
v  -52.4146 0.0012 5.2759
v  -103.3693 0.0012 5.2759
v  151.4041 0.0012 34.9007
v  100.4494 0.0012 34.9007
v  49.4948 0.0012 34.9007
v  -1.4599 0.0012 34.9007
v  -52.4146 0.0012 34.9007
v  -103.3693 0.0012 34.9007
v  151.4041 0.2777 -83.5985
v  100.4494 0.2777 -83.5985
v  100.4494 0.2777 -53.9737
v  151.4041 0.2777 -53.9737
v  49.4948 0.2777 -83.5985
v  49.4948 0.2777 -53.9737
v  -1.4599 0.2777 -83.5986
v  -1.4599 0.2777 -53.9737
v  -52.4146 0.2777 -83.5986
v  -52.4146 0.2777 -53.9737
v  -103.3693 0.2777 -83.5986
v  -103.3693 0.2777 -53.9737
v  100.4494 0.2777 -24.3489
v  151.4041 0.2777 -24.3489
v  49.4948 0.2777 -24.3489
v  -1.4599 0.2777 -24.3489
v  -52.4146 0.2777 -24.3489
v  -103.3693 0.2777 -24.3489
v  100.4494 0.2777 5.2759
v  151.4041 0.2777 5.2759
v  49.4948 0.2777 5.2759
v  -1.4599 0.2777 5.2759
v  -52.4146 0.2777 5.2759
v  -103.3693 0.2777 5.2759
v  100.4494 0.2777 34.9007
v  151.4041 0.2777 34.9007
v  49.4948 0.2777 34.9007
v  -1.4599 0.2777 34.9007
v  -52.4146 0.2777 34.9007
v  -103.3693 0.2777 34.9007
# 60 vertices

vn 0.5774 -0.5774 -0.5774
vn 0.7071 -0.7071 0.0000
vn 0.0000 -1.0000 -0.0000
vn 0.0000 -0.7071 -0.7071
vn -0.7071 -0.7071 -0.0000
vn -0.5774 -0.5774 -0.5774
vn 0.5774 -0.5774 0.5774
vn -0.0000 -0.7071 0.7071
vn -0.5774 -0.5774 0.5774
vn 0.5774 0.5774 -0.5774
vn 0.0000 0.7071 -0.7071
vn 0.0000 1.0000 -0.0000
vn 0.7071 0.7071 0.0000
vn -0.5774 0.5774 -0.5774
vn -0.7071 0.7071 -0.0000
vn -0.0000 0.7071 0.7071
vn 0.5774 0.5774 0.5774
vn -0.5774 0.5774 0.5774
# 18 vertex normals

vt 1.0000 0.0000 0.0000
vt 1.0000 0.2500 0.0000
vt 0.8000 0.2500 0.0000
vt 0.8000 0.0000 0.0000
vt 0.6000 0.2500 0.0000
vt 0.6000 0.0000 0.0000
vt 0.4000 0.2500 0.0000
vt 0.4000 0.0000 0.0000
vt 0.2000 0.2500 0.0000
vt 0.2000 0.0000 0.0000
vt 0.0000 0.2500 0.0000
vt 0.0000 0.0000 0.0000
vt 1.0000 0.5000 0.0000
vt 0.8000 0.5000 0.0000
vt 0.6000 0.5000 0.0000
vt 0.4000 0.5000 0.0000
vt 0.2000 0.5000 0.0000
vt 0.0000 0.5000 0.0000
vt 1.0000 0.7500 0.0000
vt 0.8000 0.7500 0.0000
vt 0.6000 0.7500 0.0000
vt 0.4000 0.7500 0.0000
vt 0.2000 0.7500 0.0000
vt 0.0000 0.7500 0.0000
vt 1.0000 1.0000 0.0000
vt 0.8000 1.0000 0.0000
vt 0.6000 1.0000 0.0000
vt 0.4000 1.0000 0.0000
vt 0.2000 1.0000 0.0000
vt 0.0000 1.0000 0.0000
vt 0.2500 0.0000 0.0000
vt 0.2500 1.0000 0.0000
vt 0.5000 0.0000 0.0000
vt 0.5000 1.0000 0.0000
vt 0.7500 0.0000 0.0000
vt 0.7500 1.0000 0.0000
# 36 texture coords

o Box001
g Box001
usemtl Material__27
s 2
f 1/1/1 2/2/2 3/3/3 4/4/4 
f 4/4/4 3/3/3 5/5/3 6/6/4 
f 6/6/4 5/5/3 7/7/3 8/8/4 
f 8/8/4 7/7/3 9/9/3 10/10/4 
f 10/10/4 9/9/3 11/11/5 12/12/6 
f 2/2/2 13/13/2 14/14/3 3/3/3 
f 3/3/3 14/14/3 15/15/3 5/5/3 
f 5/5/3 15/15/3 16/16/3 7/7/3 
f 7/7/3 16/16/3 17/17/3 9/9/3 
f 9/9/3 17/17/3 18/18/5 11/11/5 
f 13/13/2 19/19/2 20/20/3 14/14/3 
f 14/14/3 20/20/3 21/21/3 15/15/3 
f 15/15/3 21/21/3 22/22/3 16/16/3 
f 16/16/3 22/22/3 23/23/3 17/17/3 
f 17/17/3 23/23/3 24/24/5 18/18/5 
f 19/19/2 25/25/7 26/26/8 20/20/3 
f 20/20/3 26/26/8 27/27/8 21/21/3 
f 21/21/3 27/27/8 28/28/8 22/22/3 
f 22/22/3 28/28/8 29/29/8 23/23/3 
f 23/23/3 29/29/8 30/30/9 24/24/5 
s 4
f 31/12/10 32/10/11 33/9/12 34/11/13 
f 32/10/11 35/8/11 36/7/12 33/9/12 
f 35/8/11 37/6/11 38/5/12 36/7/12 
f 37/6/11 39/4/11 40/3/12 38/5/12 
f 39/4/11 41/1/14 42/2/15 40/3/12 
f 34/11/13 33/9/12 43/17/12 44/18/13 
f 33/9/12 36/7/12 45/16/12 43/17/12 
f 36/7/12 38/5/12 46/15/12 45/16/12 
f 38/5/12 40/3/12 47/14/12 46/15/12 
f 40/3/12 42/2/15 48/13/15 47/14/12 
f 44/18/13 43/17/12 49/23/12 50/24/13 
f 43/17/12 45/16/12 51/22/12 49/23/12 
f 45/16/12 46/15/12 52/21/12 51/22/12 
f 46/15/12 47/14/12 53/20/12 52/21/12 
f 47/14/12 48/13/15 54/19/15 53/20/12 
f 50/24/13 49/23/12 55/29/16 56/30/17 
f 49/23/12 51/22/12 57/28/16 55/29/16 
f 51/22/12 52/21/12 58/27/16 57/28/16 
f 52/21/12 53/20/12 59/26/16 58/27/16 
f 53/20/12 54/19/15 60/25/18 59/26/16 
s 8
f 1/12/1 4/10/4 32/29/11 31/30/10 
f 4/10/4 6/8/4 35/28/11 32/29/11 
f 6/8/4 8/6/4 37/27/11 35/28/11 
f 8/6/4 10/4/4 39/26/11 37/27/11 
f 10/4/4 12/1/6 41/25/14 39/26/11 
s 16
f 12/12/6 11/31/5 42/32/15 41/30/14 
f 11/31/5 18/33/5 48/34/15 42/32/15 
f 18/33/5 24/35/5 54/36/15 48/34/15 
f 24/35/5 30/1/9 60/25/18 54/36/15 
s 32
f 30/12/9 29/10/8 59/29/16 60/30/18 
f 29/10/8 28/8/8 58/28/16 59/29/16 
f 28/8/8 27/6/8 57/27/16 58/28/16 
f 27/6/8 26/4/8 55/26/16 57/27/16 
f 26/4/8 25/1/7 56/25/17 55/26/16 
s 64
f 25/12/7 19/31/2 50/32/13 56/30/17 
f 19/31/2 13/33/2 44/34/13 50/32/13 
f 13/33/2 2/35/2 34/36/13 44/34/13 
f 2/35/2 1/1/1 31/25/10 34/36/13 
# 58 polygons

#
# object Box003
#

v  151.4037 0.2820 30.9507
v  151.4037 0.2820 34.9007
v  87.7103 0.2820 34.9007
v  87.7103 0.2820 30.9507
v  24.0170 0.2820 34.9007
v  24.0170 0.2820 30.9507
v  -39.6764 0.2820 34.9007
v  -39.6764 0.2820 30.9507
v  -103.3697 0.2820 34.9007
v  -103.3697 0.2820 30.9507
v  151.4037 106.9313 30.9507
v  87.7103 106.9313 30.9507
v  87.7103 106.9313 34.9007
v  151.4037 106.9313 34.9007
v  24.0170 106.9313 30.9507
v  24.0170 106.9313 34.9007
v  -39.6764 106.9313 30.9507
v  -39.6764 106.9313 34.9007
v  -103.3697 106.9313 30.9507
v  -103.3697 106.9313 34.9007
v  87.7103 53.6066 30.9507
v  151.4037 53.6066 30.9507
v  24.0170 53.6066 30.9507
v  -39.6764 53.6066 30.9507
v  -103.3697 53.6066 30.9507
v  -103.3697 53.6066 34.9007
v  -39.6764 53.6066 34.9007
v  24.0170 53.6066 34.9007
v  87.7103 53.6066 34.9007
v  151.4037 53.6066 34.9007
# 30 vertices

vn 0.5774 -0.5774 -0.5774
vn 0.5774 -0.5774 0.5774
vn -0.0000 -0.7071 0.7071
vn 0.0000 -0.7071 -0.7071
vn -0.5774 -0.5774 0.5774
vn -0.5774 -0.5774 -0.5774
vn 0.5774 0.5774 -0.5774
vn 0.0000 0.7071 -0.7071
vn -0.0000 0.7071 0.7071
vn 0.5774 0.5774 0.5774
vn -0.5774 0.5774 -0.5774
vn -0.5774 0.5774 0.5774
vn 0.0000 0.0000 -1.0000
vn 0.7071 0.0000 -0.7071
vn -0.7071 0.0000 -0.7071
vn -0.7071 0.0000 0.7071
vn -0.0000 0.0000 1.0000
vn 0.7071 0.0000 0.7071
# 18 vertex normals

vt 1.0000 0.0000 0.0000
vt 1.0000 1.0000 0.0000
vt 0.7500 1.0000 0.0000
vt 0.7500 0.0000 0.0000
vt 0.5000 1.0000 0.0000
vt 0.5000 0.0000 0.0000
vt 0.2500 1.0000 0.0000
vt 0.2500 0.0000 0.0000
vt 0.0000 1.0000 0.0000
vt 0.0000 0.0000 0.0000
vt 0.2500 0.5000 0.0000
vt 0.0000 0.5000 0.0000
vt 0.5000 0.5000 0.0000
vt 0.7500 0.5000 0.0000
vt 1.0000 0.5000 0.0000
# 15 texture coords

o Box003
g Box003
usemtl Material__29
s 2
f 61/37/19 62/38/20 63/39/21 64/40/22 
f 64/40/22 63/39/21 65/41/21 66/42/22 
f 66/42/22 65/41/21 67/43/21 68/44/22 
f 68/44/22 67/43/21 69/45/23 70/46/24 
s 4
f 71/46/25 72/44/26 73/43/27 74/45/28 
f 72/44/26 75/42/26 76/41/27 73/43/27 
f 75/42/26 77/40/26 78/39/27 76/41/27 
f 77/40/26 79/37/29 80/38/30 78/39/27 
s 8
f 61/46/19 64/44/22 81/47/31 82/48/32 
f 64/44/22 66/42/22 83/49/31 81/47/31 
f 66/42/22 68/40/22 84/50/31 83/49/31 
f 68/40/22 70/37/24 85/51/33 84/50/31 
f 82/48/32 81/47/31 72/43/26 71/45/25 
f 81/47/31 83/49/31 75/41/26 72/43/26 
f 83/49/31 84/50/31 77/39/26 75/41/26 
f 84/50/31 85/51/33 79/38/29 77/39/26 
s 16
f 70/46/24 69/37/23 86/51/34 85/48/33 
f 85/48/33 86/51/34 80/38/30 79/45/29 
s 32
f 69/46/23 67/44/21 87/47/35 86/48/34 
f 67/44/21 65/42/21 88/49/35 87/47/35 
f 65/42/21 63/40/21 89/50/35 88/49/35 
f 63/40/21 62/37/20 90/51/36 89/50/35 
f 86/48/34 87/47/35 78/43/27 80/45/30 
f 87/47/35 88/49/35 76/41/27 78/43/27 
f 88/49/35 89/50/35 73/39/27 76/41/27 
f 89/50/35 90/51/36 74/38/28 73/39/27 
s 64
f 62/46/20 61/37/19 82/51/32 90/48/36 
f 90/48/36 82/51/32 71/38/25 74/45/28 
# 28 polygons

#
# object Box005
#

v  151.4041 0.2801 -83.5991
v  151.4041 0.2801 -24.3494
v  147.4541 0.2801 -24.3494
v  147.4542 0.2801 -83.5991
v  151.4041 0.2801 34.9002
v  147.4541 0.2801 34.9002
v  151.4041 106.9294 -83.5991
v  147.4542 106.9294 -83.5991
v  147.4541 106.9294 -24.3494
v  151.4041 106.9294 -24.3494
v  147.4541 106.9294 34.9002
v  151.4041 106.9294 34.9002
v  147.4542 53.6048 -83.5991
v  151.4041 53.6048 -83.5991
v  147.4541 53.6048 -24.3494
v  147.4541 53.6048 34.9002
v  151.4041 53.6048 34.9002
v  151.4041 53.6048 -24.3494
# 18 vertices

vn 0.5774 -0.5774 -0.5774
vn 0.7071 -0.7071 0.0000
vn -0.7071 -0.7071 -0.0000
vn -0.5774 -0.5774 -0.5774
vn 0.5774 -0.5774 0.5774
vn -0.5774 -0.5774 0.5774
vn 0.5774 0.5774 -0.5774
vn -0.5774 0.5774 -0.5774
vn -0.7071 0.7071 -0.0000
vn 0.7071 0.7071 0.0000
vn -0.5774 0.5774 0.5774
vn 0.5774 0.5774 0.5774
vn -0.7071 0.0000 -0.7071
vn 0.7071 0.0000 -0.7071
vn -1.0000 0.0000 -0.0000
vn -0.7071 0.0000 0.7071
vn 0.7071 0.0000 0.7071
vn 1.0000 0.0000 0.0000
# 18 vertex normals

vt 1.0000 0.0000 0.0000
vt 1.0000 0.5000 0.0000
vt 0.0000 0.5000 0.0000
vt 0.0000 0.0000 0.0000
vt 1.0000 1.0000 0.0000
vt 0.0000 1.0000 0.0000
vt 0.5000 0.0000 0.0000
vt 0.5000 0.5000 0.0000
vt 0.5000 1.0000 0.0000
# 9 texture coords

o Box005
g Box005
usemtl Material__29
s 2
f 91/52/37 92/53/38 93/54/39 94/55/40 
f 92/53/38 95/56/41 96/57/42 93/54/39 
s 4
f 97/55/43 98/52/44 99/53/45 100/54/46 
f 100/54/46 99/53/45 101/56/47 102/57/48 
s 8
f 91/55/37 94/52/40 103/53/49 104/54/50 
f 104/54/50 103/53/49 98/56/44 97/57/43 
s 16
f 94/55/40 93/58/39 105/59/51 103/54/49 
f 93/58/39 96/52/42 106/53/52 105/59/51 
f 103/54/49 105/59/51 99/60/45 98/57/44 
f 105/59/51 106/53/52 101/56/47 99/60/45 
usemtl Material__14
s 32
f 96/55/42 95/52/41 107/53/53 106/54/52 
f 106/54/52 107/53/53 102/56/48 101/57/47 
s 64
f 95/55/41 92/58/38 108/59/54 107/54/53 
f 92/58/38 91/52/37 104/53/50 108/59/54 
f 107/54/53 108/59/54 100/60/46 102/57/48 
f 108/59/54 104/53/50 97/56/43 100/60/46 
# 16 polygons

#
# object Box008
#

v  27.1908 0.0012 -20.3695
v  27.1908 0.0012 -16.4195
v  -37.9838 0.0012 -16.4195
v  -37.9838 0.0012 -20.3695
v  -103.1584 0.0012 -16.4195
v  -103.1584 0.0012 -20.3695
v  27.1908 106.6505 -20.3695
v  -37.9838 106.6505 -20.3695
v  -37.9838 106.6505 -16.4195
v  27.1908 106.6505 -16.4195
v  -103.1584 106.6505 -20.3695
v  -103.1584 106.6505 -16.4195
v  -37.9838 53.3259 -20.3695
v  27.1908 53.3259 -20.3695
v  -103.1584 53.3259 -20.3695
v  -103.1584 53.3259 -16.4195
v  -37.9838 53.3259 -16.4195
v  27.1908 53.3259 -16.4195
# 18 vertices

vn 0.5774 -0.5774 -0.5774
vn 0.5774 -0.5774 0.5774
vn -0.0000 -0.7071 0.7071
vn 0.0000 -0.7071 -0.7071
vn -0.5774 -0.5774 0.5774
vn -0.5774 -0.5774 -0.5774
vn 0.5774 0.5774 -0.5774
vn 0.0000 0.7071 -0.7071
vn -0.0000 0.7071 0.7071
vn 0.5774 0.5774 0.5774
vn -0.5774 0.5774 -0.5774
vn -0.5774 0.5774 0.5774
vn 0.0000 0.0000 -1.0000
vn 0.7071 0.0000 -0.7071
vn -0.7071 0.0000 -0.7071
vn -0.7071 0.0000 0.7071
vn -0.0000 0.0000 1.0000
vn 0.7071 0.0000 0.7071
# 18 vertex normals

vt 1.0000 0.0000 0.0000
vt 1.0000 1.0000 0.0000
vt 0.5000 1.0000 0.0000
vt 0.5000 0.0000 0.0000
vt 0.0000 1.0000 0.0000
vt 0.0000 0.0000 0.0000
vt 0.5000 0.5000 0.0000
vt 0.0000 0.5000 0.0000
vt 1.0000 0.5000 0.0000
# 9 texture coords

o Box008
g Box008
usemtl Material__29
s 2
f 109/61/55 110/62/56 111/63/57 112/64/58 
f 112/64/58 111/63/57 113/65/59 114/66/60 
s 4
f 115/66/61 116/64/62 117/63/63 118/65/64 
f 116/64/62 119/61/65 120/62/66 117/63/63 
usemtl Material__41
s 8
f 109/66/55 112/64/58 121/67/67 122/68/68 
f 112/64/58 114/61/60 123/69/69 121/67/67 
f 122/68/68 121/67/67 116/63/62 115/65/61 
f 121/67/67 123/69/69 119/62/65 116/63/62 
usemtl Material__29
s 16
f 114/66/60 113/61/59 124/69/70 123/68/69 
f 123/68/69 124/69/70 120/62/66 119/65/65 
s 32
f 113/66/59 111/64/57 125/67/71 124/68/70 
f 111/64/57 110/61/56 126/69/72 125/67/71 
f 124/68/70 125/67/71 117/63/63 120/65/66 
f 125/67/71 126/69/72 118/62/64 117/63/63 
s 64
f 110/66/56 109/61/55 122/69/68 126/68/72 
f 126/68/72 122/69/68 115/62/61 118/65/64 
# 16 polygons

#
# object Box009
#

v  30.7184 0.0012 -83.5743
v  30.7184 0.0012 -49.9995
v  26.7684 0.0012 -49.9995
v  26.7684 0.0012 -83.5743
v  30.7184 0.0012 -16.4248
v  26.7684 0.0012 -16.4248
v  30.7184 106.6505 -83.5743
v  26.7684 106.6505 -83.5743
v  26.7684 106.6505 -49.9995
v  30.7184 106.6505 -49.9995
v  26.7684 106.6505 -16.4248
v  30.7184 106.6505 -16.4248
v  26.7684 53.3259 -83.5743
v  30.7184 53.3259 -83.5743
v  26.7684 53.3259 -49.9995
v  26.7684 53.3259 -16.4248
v  30.7184 53.3259 -16.4248
v  30.7184 53.3259 -49.9995
# 18 vertices

vn 0.5774 -0.5774 -0.5774
vn 0.7071 -0.7071 0.0000
vn -0.7071 -0.7071 -0.0000
vn -0.5774 -0.5774 -0.5774
vn 0.5774 -0.5774 0.5774
vn -0.5774 -0.5774 0.5774
vn 0.5774 0.5774 -0.5774
vn -0.5774 0.5774 -0.5774
vn -0.7071 0.7071 -0.0000
vn 0.7071 0.7071 0.0000
vn -0.5774 0.5774 0.5774
vn 0.5774 0.5774 0.5774
vn -0.7071 0.0000 -0.7071
vn 0.7071 0.0000 -0.7071
vn -1.0000 0.0000 -0.0000
vn -0.7071 0.0000 0.7071
vn 0.7071 0.0000 0.7071
vn 1.0000 0.0000 0.0000
# 18 vertex normals

vt 1.0000 0.0000 0.0000
vt 1.0000 0.5000 0.0000
vt 0.0000 0.5000 0.0000
vt 0.0000 0.0000 0.0000
vt 1.0000 1.0000 0.0000
vt 0.0000 1.0000 0.0000
vt 0.5000 0.0000 0.0000
vt 0.5000 0.5000 0.0000
vt 0.5000 1.0000 0.0000
# 9 texture coords

o Box009
g Box009
usemtl Material__29
s 2
f 127/70/73 128/71/74 129/72/75 130/73/76 
f 128/71/74 131/74/77 132/75/78 129/72/75 
s 4
f 133/73/79 134/70/80 135/71/81 136/72/82 
f 136/72/82 135/71/81 137/74/83 138/75/84 
s 8
f 127/73/73 130/70/76 139/71/85 140/72/86 
f 140/72/86 139/71/85 134/74/80 133/75/79 
usemtl Material__41
s 16
f 130/73/76 129/76/75 141/77/87 139/72/85 
f 129/76/75 132/70/78 142/71/88 141/77/87 
f 139/72/85 141/77/87 135/78/81 134/75/80 
f 141/77/87 142/71/88 137/74/83 135/78/81 
s 32
f 132/73/78 131/70/77 143/71/89 142/72/88 
f 142/72/88 143/71/89 138/74/84 137/75/83 
usemtl Material__29
s 64
f 131/73/77 128/76/74 144/77/90 143/72/89 
f 128/76/74 127/70/73 140/71/86 144/77/90 
f 143/72/89 144/77/90 136/78/82 138/75/84 
f 144/77/90 140/71/86 133/74/79 136/78/82 
# 16 polygons

#
# object paredex
#

v  151.3988 0.0572 -84.1501
v  151.3988 0.0572 -80.2001
v  19.8355 0.0572 -80.2002
v  19.8355 0.0572 -84.1501
v  19.8355 41.8712 -84.1501
v  19.8355 83.7410 -84.1501
v  4.0356 83.7410 -84.1501
v  -11.7643 83.7410 -84.1501
v  -11.7643 41.8712 -84.1501
v  -11.7643 0.0572 -84.1501
v  -103.3746 0.0572 -84.1501
v  -103.3746 106.7066 -84.1501
v  151.3988 106.7066 -84.1501
v  151.3988 106.7066 -80.2001
v  -103.3746 0.0572 -80.2002
v  -11.7643 0.0572 -80.2002
v  -11.7643 41.8712 -80.2002
v  -11.7643 83.7410 -80.2002
v  4.0356 83.7410 -80.2002
v  19.8355 83.7410 -80.2002
v  19.8355 41.8712 -80.2002
v  -103.3746 106.7066 -80.2002
# 22 vertices

vn 0.5774 -0.5774 -0.5774
vn 0.5774 -0.5774 0.5774
vn -0.5774 -0.5774 0.5774
vn -0.5774 -0.5774 -0.5774
vn -0.7071 0.0000 -0.7071
vn 0.0000 -0.7071 -0.7071
vn 0.7071 0.0000 -0.7071
vn -0.5774 0.5774 -0.5774
vn 0.5774 0.5774 -0.5774
vn 0.5774 0.5774 0.5774
vn 0.7071 0.0000 0.7071
vn -0.0000 -0.7071 0.7071
vn -0.7071 0.0000 0.7071
vn -0.5774 0.5774 0.5774
# 14 vertex normals

vt 1.0000 0.0000 0.0000
vt 1.0000 1.0000 0.0000
vt 0.4836 1.0000 0.0000
vt 0.4836 0.0000 0.0000
vt 0.0000 0.0000 0.0000
vt 0.5164 0.0000 0.0000
vt 0.5164 0.3921 0.0000
vt 0.5164 0.7847 0.0000
vt 0.5784 0.7847 0.0000
vt 0.6404 0.7847 0.0000
vt 0.6404 0.3921 0.0000
vt 0.6404 0.0000 0.0000
vt 0.0000 1.0000 0.0000
vt 0.3596 0.0000 0.0000
vt 0.3596 0.3921 0.0000
vt 0.3596 0.7847 0.0000
vt 0.4216 0.7847 0.0000
vt 0.4836 0.7847 0.0000
vt 0.4836 0.3921 0.0000
vt 0.3596 1.0000 0.0000
vt 0.5000 0.4239 0.0000
vt 0.0000 0.4239 0.0000
vt 0.0000 0.5239 0.0000
vt 0.5000 0.5239 0.0000
vt 1.0000 0.4239 0.0000
vt 1.0000 0.5239 0.0000
vt 0.4761 0.5000 0.0000
vt 0.4761 1.0000 0.0000
vt 0.5761 1.0000 0.0000
vt 0.5761 0.5000 0.0000
vt 0.4239 0.5000 0.0000
vt 0.4239 1.0000 0.0000
vt 0.5239 1.0000 0.0000
vt 0.5239 0.5000 0.0000
vt 0.5761 0.0007 0.0000
vt 0.4761 0.0007 0.0000
vt 0.5239 0.0007 0.0000
vt 0.4239 0.0007 0.0000
# 38 texture coords

o paredex
g paredex
usemtl Material__29
s 2
f 145/79/91 146/80/92 147/81/93 148/82/94 
usemtl Material__14
s 8
f 145/83/91 148/84/94 149/85/95 150/86/93 151/87/96 152/88/92 153/89/97 154/90/91 155/79/94 156/80/98 157/91/99 
usemtl Material__29
s 64
f 146/83/92 145/79/91 157/80/99 158/91/100 
s 32
f 159/83/93 160/92/92 161/93/101 162/94/91 163/95/102 164/96/94 165/97/103 147/82/93 146/79/92 158/80/100 166/91/104 
s 2
f 160/98/92 159/91/93 155/83/94 154/92/91 
s 16
f 155/83/94 159/79/93 166/80/104 156/91/98 
s 4
f 157/83/99 156/79/98 166/80/104 158/91/100 
s 128
f 151/99/96 150/100/93 164/101/94 163/102/102 
f 152/103/92 151/99/96 163/102/102 162/104/91 
s 2048
f 165/105/103 164/106/94 150/107/93 149/108/95 
s 512
f 153/109/97 152/110/92 162/111/91 161/112/101 
s 2048
f 149/108/95 148/113/94 147/114/93 165/105/103 
s 512
f 161/112/101 160/115/92 154/116/91 153/109/97 
# 13 polygons

#
# object paredL
#

v  -99.5420 0.2801 -83.5991
v  -99.5420 0.2801 -24.3494
v  -103.4920 0.2801 -24.3494
v  -103.4920 0.2801 -83.5991
v  -103.4920 53.6048 -83.5991
v  -99.5420 53.6048 -83.5991
v  -99.5420 53.6048 -24.3494
v  -99.5420 0.2801 -5.9766
v  -103.4920 0.2801 -5.9766
v  -103.4920 53.6048 -24.3494
v  -103.4920 106.9294 -83.5991
v  -99.5420 106.9294 -83.5991
v  -99.5420 53.6048 -5.9766
v  -99.5420 41.8712 -5.9766
v  -99.5420 106.9294 -24.3494
v  -103.4920 41.8712 -5.9766
v  -103.4920 53.6048 -5.9766
v  -103.4920 106.9294 -24.3494
v  -99.5420 53.6048 34.9002
v  -99.5420 53.6048 25.6232
v  -99.5420 83.7410 25.6232
v  -99.5420 83.7410 9.8233
v  -99.5420 83.7410 -5.9766
v  -99.5420 106.9294 34.9002
v  -103.4920 83.7410 -5.9766
v  -103.4920 83.7410 9.8233
v  -103.4920 83.7410 25.6232
v  -103.4920 53.6048 25.6232
v  -103.4920 53.6048 34.9002
v  -103.4920 106.9294 34.9002
v  -99.5420 0.2801 34.9002
v  -99.5420 0.2801 25.6232
v  -99.5420 41.8712 25.6232
v  -103.4920 0.2801 25.6232
v  -103.4920 0.2801 34.9002
v  -103.4920 41.8712 25.6232
# 36 vertices

vn 0.5774 -0.5774 -0.5774
vn 0.7071 -0.7071 0.0000
vn -0.7071 -0.7071 -0.0000
vn -0.5774 -0.5774 -0.5774
vn -0.7071 0.0000 -0.7071
vn 0.7071 0.0000 -0.7071
vn 1.0000 0.0000 0.0000
vn 0.5774 -0.5774 0.5774
vn -0.5774 -0.5774 0.5774
vn -1.0000 0.0000 -0.0000
vn -0.5774 0.5774 -0.5774
vn 0.5774 0.5774 -0.5774
vn 0.7071 0.0000 0.7071
vn 0.7071 0.7071 0.0000
vn -0.7071 0.0000 0.7071
vn -0.7071 0.7071 -0.0000
vn 0.5774 0.5774 0.5774
vn -0.5774 0.5774 0.5774
# 18 vertex normals

vt 1.0000 0.0000 0.0000
vt 1.0000 0.5000 0.0000
vt 0.0000 0.5000 0.0000
vt 0.0000 0.0000 0.0000
vt 0.5000 0.0000 0.0000
vt 0.5000 0.5000 0.0000
vt 1.0000 0.6550 0.0000
vt 0.0000 0.6550 0.0000
vt 1.0000 1.0000 0.0000
vt 0.0000 1.0000 0.0000
vt 0.3450 0.0000 0.0000
vt 0.3450 0.5000 0.0000
vt 0.3450 0.3900 0.0000
vt 0.5000 1.0000 0.0000
vt 0.6550 0.0000 0.0000
vt 0.6550 0.3900 0.0000
vt 0.6550 0.5000 0.0000
vt 0.0783 0.5000 0.0000
vt 0.0783 0.7826 0.0000
vt 0.2116 0.7826 0.0000
vt 0.3450 0.7826 0.0000
vt 0.6550 0.7826 0.0000
vt 0.7884 0.7826 0.0000
vt 0.9217 0.7826 0.0000
vt 0.9217 0.5000 0.0000
vt 0.0783 0.0000 0.0000
vt 0.0783 0.3900 0.0000
vt 0.9217 0.0000 0.0000
vt 0.9217 0.3900 0.0000
vt 1.0000 0.9217 0.0000
vt 0.0000 0.9217 0.0000
vt 0.5000 0.4043 0.0000
vt -0.0000 0.4043 0.0000
vt 0.0000 0.5043 0.0000
vt 0.5000 0.5043 0.0000
vt 1.0000 0.4043 0.0000
vt 1.0000 0.5043 0.0000
vt 0.4957 0.5000 0.0000
vt 0.4957 0.6401 0.0000
vt 0.4957 1.0000 0.0000
vt 0.5957 1.0000 0.0000
vt 0.5957 0.6401 0.0000
vt 0.5957 0.5000 0.0000
vt 0.4043 0.5000 0.0000
vt 0.4043 0.6401 0.0000
vt 0.4043 1.0000 0.0000
vt 0.5043 1.0000 0.0000
vt 0.5043 0.6401 0.0000
vt 0.5043 0.5000 0.0000
vt 0.5957 0.0033 0.0000
vt 0.4957 0.0033 0.0000
vt 0.5043 0.0033 0.0000
vt 0.4043 0.0033 0.0000
# 53 texture coords

o paredL
g paredL
usemtl Material__28
s 2
f 167/117/105 168/118/106 169/119/107 170/120/108 
s 8
f 167/120/105 170/117/108 171/118/109 172/119/110 
usemtl Material__41
s 64
f 168/121/106 167/117/105 172/118/110 173/122/111 
usemtl Material__28
s 2
f 168/118/106 174/123/112 175/124/113 169/119/107 
s 16
f 170/120/108 169/121/107 176/122/114 171/119/109 
s 8
f 172/119/110 171/118/109 177/125/115 178/126/116 
usemtl Material__41
s 64
f 174/127/112 168/121/106 173/122/111 179/128/117 180/129/117 
f 173/122/111 172/118/110 178/125/116 181/130/118 
usemtl Material__28
s 16
f 169/121/107 175/131/113 182/132/119 183/133/119 176/122/114 
f 171/119/109 176/122/114 184/130/120 177/126/115 
s 4
f 178/120/116 177/117/115 184/118/120 181/119/118 
usemtl Material__41
s 64
f 185/119/117 186/134/110 187/135/108 188/136/106 189/137/113 179/128/117 173/122/111 181/130/118 190/126/121 
usemtl Material__28
s 16
f 176/122/114 183/133/119 191/138/112 192/139/107 193/140/105 194/141/109 195/118/119 196/125/122 184/130/120 
s 4
f 181/119/118 184/118/120 196/125/122 190/126/121 
s 32
f 195/119/119 185/118/117 190/125/121 196/126/122 
usemtl Material__41
s 64
f 197/120/112 198/142/105 199/143/110 186/134/110 185/119/117 
usemtl Material__28
s 16
f 200/144/108 201/117/113 195/118/119 194/141/109 202/145/109 
s 32
f 201/120/113 197/117/112 185/118/117 195/119/119 
s 2
f 198/146/105 197/125/112 201/126/113 200/147/108 
s 128
f 192/148/107 191/149/112 189/150/113 188/151/106 
f 193/152/105 192/148/107 188/151/106 187/153/108 
s 2048
f 180/154/117 179/155/117 189/156/113 191/157/112 183/158/119 182/159/119 
s 512
f 202/160/109 194/161/109 193/162/105 187/163/108 186/164/110 199/165/110 
s 2048
f 182/159/119 175/166/113 174/167/112 180/154/117 
s 512
f 199/165/110 198/168/105 200/169/108 202/160/109 
# 25 polygons

