# 3ds Max Wavefront OBJ Exporter v0.97b - (c)2007 guruware
# File Created: 09.01.2021 19:38:26

mtllib Asiento.mtl

#
# object Box001
#

v  -35.8268 0.0000 11.8110
v  -35.8268 0.0000 -11.8110
v  35.8268 0.0000 -11.8110
v  35.8268 0.0000 11.8110
v  -35.8268 19.6850 11.8110
v  35.8268 19.6850 11.8110
v  35.8268 19.6850 -11.8110
v  -35.8268 19.6850 -11.8110
# 8 vertices

vn -0.5774 -0.5774 0.5774
vn -0.5774 -0.5774 -0.5774
vn 0.5774 -0.5774 -0.5774
vn 0.5774 -0.5774 0.5774
vn -0.5774 0.5774 0.5774
vn 0.5774 0.5774 0.5774
vn 0.5774 0.5774 -0.5774
vn -0.5774 0.5774 -0.5774
# 8 vertex normals

vt 1.0000 0.0000 0.0000
vt 1.0000 1.0000 0.0000
vt 0.0000 1.0000 0.0000
vt 0.0000 0.0000 0.0000
# 4 texture coords

o Box001
g Box001
usemtl Material__25
s 2
f 1/1/1 2/2/2 3/3/3 4/4/4 
s 4
f 5/4/5 6/1/6 7/2/7 8/3/8 
s 8
f 1/4/1 4/1/4 6/2/6 5/3/5 
s 16
f 4/4/4 3/1/3 7/2/7 6/3/6 
s 32
f 3/4/3 2/1/2 8/2/8 7/3/7 
s 64
f 2/4/2 1/1/1 5/2/5 8/3/8 
# 6 polygons

#
# object Box002
#

v  -35.8268 0.0000 -11.8110
v  -35.8268 0.0000 -17.7165
v  35.8268 0.0000 -17.7165
v  35.8268 0.0000 -11.8110
v  -35.8268 72.4409 -11.8110
v  35.8268 72.4409 -11.8110
v  35.8268 72.4409 -17.7165
v  -35.8268 72.4409 -17.7165
# 8 vertices

vn -0.5774 -0.5774 0.5774
vn -0.5774 -0.5774 -0.5774
vn 0.5774 -0.5774 -0.5774
vn 0.5774 -0.5774 0.5774
vn -0.5774 0.5774 0.5774
vn 0.5774 0.5774 0.5774
vn 0.5774 0.5774 -0.5774
vn -0.5774 0.5774 -0.5774
# 8 vertex normals

vt 1.0000 0.0000 0.0000
vt 1.0000 1.0000 0.0000
vt 0.0000 1.0000 0.0000
vt 0.0000 0.0000 0.0000
# 4 texture coords

o Box002
g Box002
usemtl Material__25
s 2
f 9/5/9 10/6/10 11/7/11 12/8/12 
s 4
f 13/8/13 14/5/14 15/6/15 16/7/16 
s 8
f 9/8/9 12/5/12 14/6/14 13/7/13 
s 16
f 12/8/12 11/5/11 15/6/15 14/7/14 
s 32
f 11/8/11 10/5/10 16/6/16 15/7/15 
s 64
f 10/8/10 9/5/9 13/6/13 16/7/16 
# 6 polygons

#
# object Box003
#

v  -35.8268 32.3319 -5.4876
v  -35.8268 19.6850 -11.8110
v  35.8268 19.6850 -11.8110
v  35.8268 32.3319 -5.4876
v  -35.8268 72.4409 -11.3413
v  35.8268 72.4409 -11.3413
v  35.8268 72.4409 -11.8110
v  -35.8268 72.4409 -11.8110
v  -35.8268 38.8809 -4.3038
v  35.8268 38.8809 -4.3038
v  35.8268 68.9931 -7.5072
v  -35.8268 68.9931 -7.5072
v  35.8268 36.6208 -4.2723
v  35.8268 34.4378 -4.6669
v  35.8268 72.0579 -9.3743
v  35.8268 70.9086 -8.0962
v  -35.8268 34.4378 -4.6669
v  -35.8268 36.6208 -4.2723
v  -35.8268 70.9086 -8.0962
v  -35.8268 72.0579 -9.3743
# 20 vertices

vn -0.6970 -0.2908 0.6555
vn -0.5405 -0.8187 -0.1937
vn 0.5405 -0.8187 -0.1937
vn 0.6970 -0.2908 0.6555
vn -0.6861 0.7241 0.0699
vn 0.6861 0.7241 0.0699
vn 0.5774 0.5774 -0.5774
vn -0.5774 0.5774 -0.5774
vn -0.6969 0.0430 0.7159
vn 0.6969 0.0430 0.7159
vn 0.6861 0.1461 0.7127
vn -0.6861 0.1461 0.7127
vn 0.6861 -0.0599 0.7251
vn 0.6861 -0.1977 0.7001
vn 0.6517 0.6788 0.3383
vn 0.6517 0.4083 0.6392
vn -0.6861 -0.1977 0.7001
vn -0.6861 -0.0599 0.7251
vn -0.6517 0.4083 0.6392
vn -0.6517 0.6788 0.3383
# 20 vertex normals

vt 0.0284 0.2407 0.5587
vt 0.0284 0.0019 0.4134
vt 0.9802 0.0019 0.4134
vt 0.9802 0.2407 0.5587
vt 0.0284 0.9981 0.4242
vt 0.9802 0.9981 0.4242
vt 0.9802 0.9981 0.4134
vt 0.0284 0.9981 0.4134
vt 0.0284 0.3644 0.5859
vt 0.9802 0.3644 0.5859
vt 0.9802 0.9330 0.5123
vt 0.0284 0.9330 0.5123
vt 0.9802 0.3217 0.5866
vt 0.9802 0.2805 0.5775
vt 0.9802 0.9909 0.4694
vt 0.9802 0.9692 0.4987
vt 0.0284 0.2805 0.5775
vt 0.0284 0.3217 0.5866
vt 0.0284 0.9692 0.4987
vt 0.0284 0.9909 0.4694
# 20 texture coords

o Box003
g Box003
usemtl ColchonV
s 1
f 17/9/17 18/10/18 19/11/19 20/12/20 
f 21/13/21 22/14/22 23/15/23 24/16/24 
f 25/17/25 26/18/26 27/19/27 28/20/28 
s 2
f 26/18/26 29/21/29 30/22/30 20/12/20 19/11/19 23/15/23 22/14/22 31/23/31 32/24/32 27/19/27 
s 4
f 19/11/19 18/10/18 24/16/24 23/15/23 
s 2
f 18/10/18 17/9/17 33/25/33 34/26/34 25/17/25 28/20/28 35/27/35 36/28/36 21/13/21 24/16/24 
s 1
f 20/12/20 30/22/30 33/25/33 17/9/17 
f 30/22/30 29/21/29 34/26/34 33/25/33 
f 29/21/29 26/18/26 25/17/25 34/26/34 
f 21/13/21 36/28/36 31/23/31 22/14/22 
s 4
f 36/28/36 35/27/35 32/24/32 31/23/31 
s 1
f 35/27/35 28/20/28 27/19/27 32/24/32 
# 12 polygons

#
# object Box004
#

v  -35.8268 19.6850 15.1274
v  -35.8268 19.6850 -11.8110
v  35.8268 19.6850 -11.8110
v  35.8268 19.6850 15.1274
v  -35.8268 26.8701 11.0732
v  35.8268 26.8701 11.0732
v  35.8268 27.5591 -7.8740
v  -35.8268 27.5591 -7.8740
v  -35.8268 20.2830 15.5819
v  35.8268 20.2830 15.5819
v  35.8268 24.1624 14.5043
v  -35.8268 24.1624 14.5043
v  35.8268 19.8345 15.5514
v  35.8268 26.5255 12.6573
v  35.8268 25.6229 13.8010
v  -35.8268 19.8345 15.5514
v  -35.8268 25.6229 13.8010
v  -35.8268 26.5255 12.6573
# 18 vertices

vn -0.6710 -0.7308 0.1251
vn -0.5568 -0.4367 -0.7066
vn 0.5568 -0.4367 -0.7066
vn 0.6710 -0.7308 0.1251
vn -0.6877 0.7203 0.0907
vn 0.6877 0.7203 0.0907
vn 0.6032 0.6860 -0.4069
vn -0.6032 0.6860 -0.4069
vn -0.6711 0.0751 0.7376
vn 0.6711 0.0751 0.7376
vn 0.6877 0.2557 0.6795
vn -0.6877 0.2557 0.6795
vn 0.6019 -0.4833 0.6357
vn 0.6598 0.6795 0.3209
vn 0.6598 0.4700 0.5863
vn -0.6019 -0.4833 0.6357
vn -0.6598 0.4700 0.5863
vn -0.6598 0.6795 0.3209
# 18 vertex normals

vt 0.0218 0.0156 0.0000
vt 0.0218 1.0015 0.0000
vt 0.9697 1.0015 0.0000
vt 0.9697 0.0156 0.0000
vt 0.0218 0.1640 0.9125
vt 0.9697 0.1640 0.9125
vt 0.9697 0.8574 1.0000
vt 0.0218 0.8574 1.0000
vt 0.0218 -0.0011 0.0759
vt 0.9697 -0.0011 0.0759
vt 0.9697 0.0384 0.5686
vt 0.0218 0.0384 0.5686
vt 0.9697 0.0001 0.0190
vt 0.9697 0.1060 0.8687
vt 0.9697 0.0641 0.7541
vt 0.0218 0.0001 0.0190
vt 0.0218 0.0641 0.7541
vt 0.0218 0.1060 0.8687
# 18 texture coords

o Box004
g Box004
usemtl ColchonH
s 1
f 37/29/37 38/30/38 39/31/39 40/32/40 
s 2
f 41/33/41 42/34/42 43/35/43 44/36/44 
f 45/37/45 46/38/46 47/39/47 48/40/48 
s 4
f 46/38/46 49/41/49 40/32/40 39/31/39 43/35/43 42/34/42 50/42/50 51/43/51 47/39/47 
s 8
f 39/31/39 38/30/38 44/36/44 43/35/43 
s 4
f 38/30/38 37/29/37 52/44/52 45/37/45 48/40/48 53/45/53 54/46/54 41/33/41 44/36/44 
s 2
f 41/33/41 54/46/54 50/42/50 42/34/42 
f 54/46/54 53/45/53 51/43/51 50/42/50 
f 53/45/53 48/40/48 47/39/47 51/43/51 
s 1
f 40/32/40 49/41/49 52/44/52 37/29/37 
s 2
f 49/41/49 46/38/46 45/37/45 52/44/52 
# 11 polygons

